<svg xmlns="http://www.w3.org/2000/svg" xmlns:xlink="http://www.w3.org/1999/xlink" width="256" height="260.877" viewBox="0 0 256 260.877">
  <defs>
    <filter id="Union_1" x="105.008" y="15.68" width="150.992" height="156.804" filterUnits="userSpaceOnUse">
      <feOffset dx="-8" dy="10" input="SourceAlpha"/>
      <feGaussianBlur stdDeviation="3" result="blur"/>
      <feFlood flood-color="#3c617d" flood-opacity="0.302"/>
      <feComposite operator="in" in2="blur"/>
      <feComposite in="SourceGraphic"/>
    </filter>
  </defs>
  <g id="Group_703" data-name="Group 703" transform="translate(-335 -124.457)">
    <g id="Group_641" data-name="Group 641" transform="translate(23.375 -1995.877)">
      <path id="Path_1135" data-name="Path 1135" d="M231.625,136.536V138.6a2.066,2.066,0,0,1-2.066,2.066H2.066A2.066,2.066,0,0,1,0,138.6v-2.066H14.36V4.974A4.99,4.99,0,0,1,19.334,0H216.774a4.993,4.993,0,0,1,4.974,4.974V136.536Z" transform="translate(335.001 2240.543)" fill="#edf1f4"/>
      <path id="Path_1138" data-name="Path 1138" d="M187.078.517a1.551,1.551,0,0,1,1.55,1.55v117.4a1.551,1.551,0,0,1-1.55,1.55H2.066a1.552,1.552,0,0,1-1.55-1.55V2.066A1.552,1.552,0,0,1,2.066.517Zm0-.517H2.066A2.066,2.066,0,0,0,0,2.066v117.4a2.066,2.066,0,0,0,2.066,2.066H187.078a2.066,2.066,0,0,0,2.066-2.066V2.066A2.066,2.066,0,0,0,187.078,0" transform="translate(358.585 2249.118)" fill="#88b9dc"/>
      <g id="Group_640" data-name="Group 640" transform="translate(335 2240.545)">
        <path id="Path_1136" data-name="Path 1136" d="M202.417,0H4.978A4.992,4.992,0,0,0,0,4.976V136.557H207.391V4.976A4.991,4.991,0,0,0,202.417,0" transform="translate(14.357 0)" fill="#114367"/>
        <path id="Path_1137" data-name="Path 1137" d="M187.078,121.531H2.066A2.066,2.066,0,0,1,0,119.465V2.066A2.066,2.066,0,0,1,2.066,0H187.078a2.066,2.066,0,0,1,2.066,2.066v117.4a2.066,2.066,0,0,1-2.066,2.066" transform="translate(23.585 8.573)" fill="#fff"/>
        <path id="Path_1139" data-name="Path 1139" d="M96.871,0H0V2.066A2.066,2.066,0,0,0,2.066,4.132H229.559a2.066,2.066,0,0,0,2.066-2.066V0H96.871Z" transform="translate(0 136.535)" fill="#114367"/>
        <rect id="Rectangle_371" data-name="Rectangle 371" width="89.725" height="9.867" rx="4.934" transform="translate(43.987 28.325)" fill="#45bbaf"/>
        <rect id="Rectangle_372" data-name="Rectangle 372" width="125.804" height="10.387" rx="5.193" transform="translate(43.986 53.252)" fill="#e6f1f8"/>
        <rect id="Rectangle_373" data-name="Rectangle 373" width="102.31" height="10.387" rx="5.193" transform="translate(43.987 78.181)" fill="#e6f1f8"/>
        <rect id="Rectangle_374" data-name="Rectangle 374" width="66.995" height="10.387" rx="5.193" transform="translate(43.987 103.109)" fill="#e6f1f8"/>
      </g>
    </g>
    <g id="Group_642" data-name="Group 642" transform="translate(0 -2022.845)">
      <g transform="matrix(1, 0, 0, 1, 335, 2147.3)" filter="url(#Union_1)">
        <path id="Union_1-2" data-name="Union 1" d="M0,98.4c0-.045,0-.09,0-.135V10A10,10,0,0,1,10,0H122.992a10,10,0,0,1,10,10V98.264a10,10,0,0,1-10,10H29.54L0,137.8Z" transform="translate(122.01 15.68)" fill="#fff"/>
      </g>
      <g id="Icon_ionic-ios-mail" data-name="Icon ionic-ios-mail" transform="translate(484.425 2191.808)">
        <path id="Path_1154" data-name="Path 1154" d="M80.9,10.429,60.68,31.021a.363.363,0,0,0,0,.526L74.827,46.616a2.438,2.438,0,0,1,0,3.457,2.449,2.449,0,0,1-3.457,0L57.279,35.061a.386.386,0,0,0-.545,0L53.3,38.556A15.128,15.128,0,0,1,42.511,43.1,15.431,15.431,0,0,1,31.5,38.424l-3.307-3.363a.386.386,0,0,0-.545,0L13.558,50.073a2.449,2.449,0,0,1-3.457,0,2.438,2.438,0,0,1,0-3.457L24.249,31.547a.4.4,0,0,0,0-.526L4.014,10.429a.37.37,0,0,0-.639.263V51.9a6.03,6.03,0,0,0,6.012,6.012H75.522A6.03,6.03,0,0,0,81.535,51.9v-41.2A.376.376,0,0,0,80.9,10.429Z" transform="translate(-3.375 -3.797)" fill="rgba(69,187,175,0.3)"/>
        <path id="Path_1155" data-name="Path 1155" d="M41.032,42.277A10.215,10.215,0,0,0,48.379,39.2L77.858,9.19a5.9,5.9,0,0,0-3.72-1.315H7.946A5.866,5.866,0,0,0,4.226,9.19L33.7,39.2A10.216,10.216,0,0,0,41.032,42.277Z" transform="translate(-1.952 -7.875)" fill="rgba(69,187,175,0.3)"/>
      </g>
      <ellipse id="Ellipse_71" data-name="Ellipse 71" cx="16.685" cy="16.685" rx="16.685" ry="16.685" transform="translate(541.954 2177.725)" fill="#45bbaf"/>
      <text id="_1" data-name="1" transform="translate(552.705 2199.786)" fill="#fff" font-size="19" font-family="FiraSans-Regular, Fira Sans"><tspan x="0" y="0">1</tspan></text>
    </g>
    <g id="Group_637" data-name="Group 637" transform="translate(335 208.938)">
      <g id="Group_630" data-name="Group 630" transform="translate(0 0)">
        <path id="Path_1148" data-name="Path 1148" d="M1.422,33.593h0a2.312,2.312,0,0,1-1.2-3.119A52.983,52.983,0,0,1,48.279,0a53.7,53.7,0,0,1,7.487.525A2.309,2.309,0,0,1,55.148,5.1a49.05,49.05,0,0,0-6.869-.484A48.377,48.377,0,0,0,4.39,32.462a2.3,2.3,0,0,1-2.969,1.131M48.279,17.64c1.18,0,2.361.059,3.529.175a2.309,2.309,0,0,0,.477-4.594c-1.327-.133-2.667-.2-4.006-.2a40.123,40.123,0,0,0-35.66,21.752,2.3,2.3,0,0,0,1.132,3.154h0a2.306,2.306,0,0,0,2.98-1.056A35.5,35.5,0,0,1,48.279,17.64" transform="translate(0 0.001)" fill="#88b9dc"/>
      </g>
    </g>
    <g id="Group_638" data-name="Group 638" transform="translate(435.519 187.095) rotate(180)">
      <g id="Group_630-2" data-name="Group 630" transform="translate(0 0)">
        <path id="Path_1148-2" data-name="Path 1148" d="M.8,18.911h0a1.3,1.3,0,0,1-.676-1.756A29.826,29.826,0,0,1,27.178,0a30.228,30.228,0,0,1,4.215.3,1.3,1.3,0,0,1-.348,2.577A27.612,27.612,0,0,0,27.178,2.6,27.233,27.233,0,0,0,2.471,18.274,1.3,1.3,0,0,1,.8,18.911m26.378-8.98c.664,0,1.329.033,1.987.1a1.3,1.3,0,0,0,.268-2.586c-.747-.075-1.5-.112-2.255-.112A22.587,22.587,0,0,0,7.1,19.576a1.3,1.3,0,0,0,.637,1.775h0a1.3,1.3,0,0,0,1.678-.594A19.985,19.985,0,0,1,27.178,9.931" fill="#88b9dc"/>
      </g>
    </g>
    <g id="Group_639" data-name="Group 639" transform="matrix(0.966, -0.259, 0.259, 0.966, 440.843, 129.274)">
      <g id="Group_630-3" data-name="Group 630" transform="translate(0 0)">
        <path id="Path_1148-3" data-name="Path 1148" d="M.458,10.822h0a.745.745,0,0,1-.387-1A17.068,17.068,0,0,1,15.553,0a17.3,17.3,0,0,1,2.412.169.744.744,0,0,1-.2,1.475,15.8,15.8,0,0,0-2.213-.156,15.585,15.585,0,0,0-14.139,8.97.741.741,0,0,1-.956.364m15.1-5.139c.38,0,.761.019,1.137.056a.744.744,0,0,0,.154-1.48c-.427-.043-.859-.064-1.291-.064A12.926,12.926,0,0,0,4.065,11.2a.742.742,0,0,0,.365,1.016h0a.743.743,0,0,0,.96-.34,11.437,11.437,0,0,1,10.162-6.2" fill="#88b9dc"/>
      </g>
    </g>
  </g>
</svg>
